<?xml version="1.0" encoding="UTF-8" standalone="no"?>
<svg
   width="64"
   height="64"
   version="1.1"
   viewBox="0 0 16.933 16.933"
   id="svg6"
   sodipodi:docname="glass-shine-burst.svg"
   inkscape:version="1.4.4 (dcaf3e7d9e, 2026-05-05)"
   xml:space="preserve"
   xmlns:inkscape="http://www.inkscape.org/namespaces/inkscape"
   xmlns:sodipodi="http://sodipodi.sourceforge.net/DTD/sodipodi-0.dtd"
   xmlns:xlink="http://www.w3.org/1999/xlink"
   xmlns="http://www.w3.org/2000/svg"
   xmlns:svg="http://www.w3.org/2000/svg"><sodipodi:namedview
     id="namedview6"
     pagecolor="#ffffff"
     bordercolor="#000000"
     borderopacity="0.25"
     inkscape:showpageshadow="2"
     inkscape:pageopacity="0.0"
     inkscape:pagecheckerboard="0"
     inkscape:deskcolor="#d1d1d1"
     inkscape:zoom="6.78125"
     inkscape:cx="33.769585"
     inkscape:cy="28.165899"
     inkscape:window-width="1920"
     inkscape:window-height="1048"
     inkscape:window-x="0"
     inkscape:window-y="32"
     inkscape:window-maximized="1"
     inkscape:current-layer="svg6" /><defs
     id="defs2"><linearGradient
       id="a-0"
       x1="2.5418189"
       x2="12.742182"
       y1="3.1766074"
       y2="13.739392"
       gradientUnits="userSpaceOnUse"><stop
         stop-color="#474747"
         offset="0"
         id="stop1"
         style="stop-color:#000000;stop-opacity:1;" /><stop
         stop-color="#333"
         offset="1"
         id="stop2"
         style="stop-color:#b0b0b0;stop-opacity:1;" /></linearGradient><linearGradient
       inkscape:collect="always"
       xlink:href="#linearGradient17"
       id="linearGradient1"
       gradientUnits="userSpaceOnUse"
       x1="0.78492594"
       y1="0.61956447"
       x2="16.148073"
       y2="15.982713"
       spreadMethod="repeat" /><linearGradient
       id="linearGradient17"
       inkscape:label="glass-shine"><stop
         style="stop-color:#ffffff;stop-opacity:0;"
         offset="0"
         id="stop12" /><stop
         style="stop-color:#ffffff;stop-opacity:0.5;"
         offset="0.22984281"
         id="stop13" /><stop
         style="stop-color:#ffffff;stop-opacity:0.41960784;"
         offset="0.39573562"
         id="stop14" /><stop
         style="stop-color:#ffffff;stop-opacity:0;"
         offset="0.63425457"
         id="stop15" /><stop
         style="stop-color:#ffffff;stop-opacity:0.0745098;"
         offset="0.83005035"
         id="stop16" /><stop
         style="stop-color:#ffffff;stop-opacity:0.5;"
         offset="1"
         id="stop17" /></linearGradient></defs><defs
     id="defs6"><linearGradient
       id="shine-grad-final-v3"
       x1="0%"
       y1="0%"
       x2="100%"
       y2="100%"><stop
         offset="0"
         stop-color="#ffffff"
         stop-opacity="0.5"
         id="stop4"
         style="stop-color:#ffffff;stop-opacity:0.5;" /><stop
         offset="50%"
         stop-color="#ffffff"
         stop-opacity="0"
         id="stop5" /><stop
         offset="100%"
         stop-color="#ffffff"
         stop-opacity="0.5"
         id="stop6" /></linearGradient></defs><path
     d="m 8.3267126,0.28153374 c 0.037456,-0.0669408 0.05616,-0.10041606 0.078988,-0.11444622 0.033038,-0.0203433 0.074766,-0.0203433 0.1078042,0 0.022828,0.0140309 0.041531,0.0475055 0.078988,0.11444622 L 9.8791712,2.5814739 c 0.023024,0.041143 0.034511,0.061718 0.050073,0.074231 0.022531,0.01812 0.051646,0.02592 0.080211,0.021497 0.01974,-0.00306 0.04,-0.01512 0.0805,-0.039243 l 2.264281,-1.348475 c 0.06588,-0.039248 0.09882,-0.05887 0.125575,-0.059622 0.03883,-0.00107 0.07497,0.019764 0.09342,0.053917 0.01271,0.023554 0.01222,0.061904 0.01115,0.138599 l -0.03569,2.6351444 c -6.31e-4,0.047128 -9.28e-4,0.070691 0.0063,0.089346 0.01045,0.026951 0.03176,0.048257 0.05872,0.058713 0.01865,0.00721 0.04222,0.00692 0.08934,0.00628 l 2.635165,-0.03569 c 0.07669,-0.00107 0.115021,-0.00158 0.138584,0.011144 0.03417,0.018458 0.05498,0.054589 0.0539,0.09342 -7.42e-4,0.026754 -0.02037,0.059695 -0.0596,0.125575 l -1.348489,2.2642853 c -0.02415,0.0405 -0.03618,0.060774 -0.03927,0.080509 -0.0044,0.028571 0.0034,0.057682 0.0215,0.080215 0.01251,0.015562 0.03309,0.027049 0.07427,0.050073 l 2.29992,1.2866792 c 0.06696,0.037456 0.100392,0.05616 0.114432,0.078988 0.02037,0.033038 0.02037,0.074766 0,0.1078043 -0.01404,0.022827 -0.04747,0.041531 -0.114432,0.078988 l -2.29992,1.2866792 c -0.04118,0.023024 -0.06176,0.034511 -0.07427,0.050073 -0.01811,0.02253 -0.02592,0.051646 -0.0215,0.080211 0.0031,0.01974 0.01512,0.04001 0.03927,0.08052 l 1.348485,2.2642807 c 0.03923,0.06588 0.05886,0.09882 0.0596,0.125575 10e-4,0.03883 -0.01974,0.07497 -0.0539,0.09342 -0.02357,0.01271 -0.06191,0.01222 -0.138585,0.01115 l -2.635164,-0.03569 c -0.04712,-6.3e-4 -0.07069,-9.28e-4 -0.08934,0.0063 -0.02695,0.01045 -0.04825,0.03177 -0.05872,0.05872 -0.0072,0.01865 -0.0069,0.04222 -0.0063,0.08934 l 0.03569,2.635165 c 10e-4,0.07669 0.0016,0.11502 -0.01115,0.138584 -0.01845,0.03417 -0.05459,0.05498 -0.09342,0.0539 -0.02675,-7.42e-4 -0.0597,-0.02037 -0.125575,-0.0596 l -2.264279,-1.348486 c -0.0405,-0.02416 -0.06078,-0.03618 -0.08051,-0.03927 -0.028574,-0.0044 -0.05768,0.0034 -0.080211,0.0215 -0.015561,0.01252 -0.027049,0.03309 -0.050073,0.07427 l -1.2866791,2.299921 c -0.037457,0.06696 -0.05616,0.100391 -0.078988,0.114431 -0.033038,0.02037 -0.074766,0.02037 -0.1078041,0 -0.022827,-0.01404 -0.041531,-0.04748 -0.078988,-0.114431 l -1.2866664,-2.29994 c -0.023024,-0.04118 -0.034511,-0.06176 -0.050073,-0.07427 -0.022533,-0.01811 -0.051644,-0.02592 -0.080215,-0.0215 -0.019735,0.0031 -0.040009,0.01512 -0.080509,0.03927 L 4.564956,15.31246 c -0.06588,0.03923 -0.098821,0.05886 -0.1255752,0.0596 -0.038831,0.001 -0.074963,-0.01974 -0.09342,-0.0539 -0.012715,-0.02357 -0.012224,-0.0619 -0.011144,-0.138584 l 0.03569,-2.635165 c 6.308e-4,-0.04713 9.277e-4,-0.07069 -0.00628,-0.08934 -0.010456,-0.02695 -0.031762,-0.04825 -0.058713,-0.05872 -0.018654,-0.0072 -0.042218,-0.0069 -0.089346,-0.0063 l -2.6351444,0.03569 c -0.076695,10e-4 -0.1150452,0.0016 -0.138599,-0.01115 -0.034153,-0.01845 -0.055002,-0.05459 -0.053917,-0.09342 7.422e-4,-0.02675 0.020372,-0.05969 0.059622,-0.125574 L 2.796603,9.9313496 c 0.024123,-0.0405 0.036185,-0.06078 0.039243,-0.08051 C 2.840266,9.8222646 2.832476,9.7931586 2.814349,9.7706286 2.801837,9.755072 2.7812621,9.7435844 2.740119,9.7205607 L 0.44017335,8.4338508 c -0.0669408,-0.037457 -0.10041605,-0.05616 -0.11444622,-0.078988 -0.0203434,-0.033038 -0.0203434,-0.074766 0,-0.1078042 0.0140309,-0.022828 0.0475055,-0.041531 0.11444622,-0.078988 L 2.7401135,6.8813921 c 0.041143,-0.023024 0.061717,-0.034511 0.074231,-0.050073 0.01812,-0.022532 0.02592,-0.051644 0.021497,-0.080215 -0.00306,-0.019735 -0.01512,-0.04001 -0.039243,-0.08051 L 1.4481228,4.406314 c -0.039248,-0.06588 -0.05887,-0.09882 -0.059622,-0.125575 -0.00107,-0.038831 0.019764,-0.074963 0.053917,-0.09342 0.023554,-0.012715 0.061904,-0.012224 0.1385989,-0.011144 l 2.6351445,0.03569 c 0.047128,6.308e-4 0.070691,9.276e-4 0.089346,-0.00628 0.026951,-0.010456 0.048257,-0.031762 0.058713,-0.058713 0.00721,-0.018654 0.00692,-0.042219 0.00628,-0.089346 L 4.3348159,1.4223761 c -0.00107,-0.076695 -0.00158,-0.1150451 0.011144,-0.1385989 0.018458,-0.034153 0.054589,-0.055002 0.09342,-0.053917 0.026754,7.422e-4 0.059695,0.020373 0.1255752,0.059622 l 2.2642804,1.3484744 c 0.0405,0.024123 0.060775,0.036186 0.080509,0.039244 0.028571,0.00442 0.057682,-0.00337 0.080215,-0.021498 0.015562,-0.012513 0.027049,-0.033088 0.050073,-0.074231 z"
     fill="#6750a4"
     id="path2"
     style="fill:url(#linearGradient1);fill-opacity:1;stroke-width:0.553103;opacity:0.15;stroke:none;stroke-linecap:square;stroke-linejoin:round;paint-order:stroke fill markers" /></svg>
