<?xml version="1.0" encoding="UTF-8" standalone="no"?>
<svg
   width="64"
   height="64"
   version="1.1"
   viewBox="0 0 16.933 16.933"
   id="svg6"
   sodipodi:docname="9s-cookie.svg"
   inkscape:version="1.4.4 (dcaf3e7d9e, 2026-05-05)"
   xml:space="preserve"
   xmlns:inkscape="http://www.inkscape.org/namespaces/inkscape"
   xmlns:sodipodi="http://sodipodi.sourceforge.net/DTD/sodipodi-0.dtd"
   xmlns="http://www.w3.org/2000/svg"
   xmlns:svg="http://www.w3.org/2000/svg"><sodipodi:namedview
     id="namedview6"
     pagecolor="#ffffff"
     bordercolor="#000000"
     borderopacity="0.25"
     inkscape:showpageshadow="2"
     inkscape:pageopacity="0.0"
     inkscape:pagecheckerboard="0"
     inkscape:deskcolor="#d1d1d1"
     inkscape:zoom="4.0000001"
     inkscape:cx="23.249999"
     inkscape:cy="-12.5"
     inkscape:window-width="1920"
     inkscape:window-height="1048"
     inkscape:window-x="0"
     inkscape:window-y="32"
     inkscape:window-maximized="1"
     inkscape:current-layer="svg6"
     showguides="true" /><defs
     id="defs2"><linearGradient
       id="a-0"
       x1="2.5418189"
       x2="12.742182"
       y1="3.1766074"
       y2="13.739392"
       gradientUnits="userSpaceOnUse"><stop
         stop-color="#474747"
         offset="0"
         id="stop1"
         style="stop-color:#000000;stop-opacity:1;" /><stop
         stop-color="#333"
         offset="1"
         id="stop2"
         style="stop-color:#b0b0b0;stop-opacity:1;" /></linearGradient><filter
       inkscape:collect="always"
       style="color-interpolation-filters:sRGB"
       id="filter2"
       x="-0.04760181"
       y="-0.048204345"
       width="1.0952036"
       height="1.0964087"><feGaussianBlur
         inkscape:collect="always"
         stdDeviation="0.31190014"
         id="feGaussianBlur2" /></filter></defs><defs
     id="defs6"><linearGradient
       id="shine-grad-final-v3"
       x1="0%"
       y1="0%"
       x2="100%"
       y2="100%"><stop
         offset="0"
         stop-color="#ffffff"
         stop-opacity="0.5"
         id="stop4"
         style="stop-color:#ffffff;stop-opacity:0.5;" /><stop
         offset="50%"
         stop-color="#ffffff"
         stop-opacity="0"
         id="stop5" /><stop
         offset="100%"
         stop-color="#ffffff"
         stop-opacity="0.5"
         id="stop6" /></linearGradient></defs><path
     d="m 6.7594231,1.1197431 c 0.084743,-0.069202 0.1271626,-0.1038025 0.1658452,-0.13301606 0.9117367,-0.68824108 2.1707438,-0.68824108 3.0824807,0 0.03868,0.029214 0.08105,0.063814 0.165846,0.13301606 0.03786,0.030893 0.05678,0.046337 0.07547,0.061043 0.429053,0.3371022 0.955127,0.5281325 1.500955,0.5450665 0.02383,7.337e-4 0.04829,0.00105 0.09717,0.00165 0.109545,0.00136 0.164292,0.00204 0.212731,0.00448 1.141842,0.057486 2.106337,0.8649437 2.361342,1.976879 0.01082,0.047191 0.02096,0.1008856 0.04135,0.2082411 0.0091,0.047952 0.01364,0.071929 0.01849,0.095178 0.111486,0.5334037 0.391389,1.017107 0.798649,1.3801515 0.01776,0.015871 0.03631,0.031742 0.07334,0.063581 0.08304,0.071298 0.124541,0.1069234 0.160118,0.1398789 0.837623,0.776323 1.056275,2.0133921 0.535248,3.0287517 -0.02208,0.043099 -0.04888,0.090761 -0.102459,0.1860845 -0.02393,0.042517 -0.03591,0.063824 -0.04717,0.084743 -0.258207,0.4801116 -0.355424,1.0301628 -0.27733,1.5694887 0.0034,0.02349 0.0073,0.04756 0.01524,0.09571 0.01767,0.107845 0.02651,0.161768 0.03252,0.209819 0.14153,1.131892 -0.488022,2.219812 -1.54124,2.663426 -0.0447,0.01883 -0.09595,0.0382 -0.198412,0.07683 -0.04572,0.01723 -0.06858,0.02587 -0.09071,0.0347 -0.507146,0.202199 -0.935957,0.561215 -1.223578,1.024387 -0.01256,0.02019 -0.02504,0.04115 -0.05004,0.0831 -0.05592,0.09397 -0.08387,0.140948 -0.110224,0.18162 -0.620815,0.957845 -1.803914,1.38748 -2.8965907,1.051859 -0.046351,-0.01422 -0.09809,-0.03228 -0.2014701,-0.06839 -0.046157,-0.01612 -0.069212,-0.02416 -0.091829,-0.03159 -0.518746,-0.170359 -1.0785528,-0.170359 -1.5972987,0 -0.022618,0.0074 -0.04572,0.01549 -0.091877,0.03159 -0.1033803,0.03611 -0.1550704,0.05417 -0.2014217,0.06839 -1.0926764,0.335621 -2.2757742,-0.09401 -2.89659,-1.051859 -0.026355,-0.04067 -0.054311,-0.08766 -0.1102722,-0.18162 -0.024947,-0.04194 -0.037421,-0.0629 -0.049991,-0.0831 -0.2876254,-0.463172 -0.7164645,-0.822188 -1.2235958,-1.024387 -0.022117,-0.0088 -0.044987,-0.01747 -0.090722,-0.0347 -0.1024581,-0.03863 -0.1536824,-0.058 -0.1983883,-0.07683 -1.0532463,-0.443614 -1.6827693,-1.531534 -1.5412352,-2.663426 0.00601,-0.04805 0.014846,-0.101974 0.032528,-0.209819 0.00789,-0.04814 0.011838,-0.07221 0.015241,-0.09571 C 1.3896077,9.9256351 1.2924012,9.3755838 1.0341687,8.8954722 1.0229031,8.874553 1.0109448,8.8532461 0.98702648,8.8107293 0.93343867,8.7154059 0.90664699,8.6677443 0.88453428,8.6246448 0.3635267,7.6092852 0.58215417,6.3722161 1.4197968,5.595893 c 0.035557,-0.032955 0.077069,-0.06858 0.1600938,-0.1398788 0.037067,-0.031839 0.055597,-0.04771 0.073361,-0.063581 0.4072408,-0.3630445 0.6871442,-0.8467478 0.7986446,-1.3801515 0.00487,-0.023249 0.00941,-0.047225 0.018497,-0.095178 0.02036,-0.1073604 0.030539,-0.1610501 0.041362,-0.2082459 0.2550143,-1.1119305 1.2194942,-1.9193889 2.3612934,-1.9768742 0.048487,-0.00244 0.1032348,-0.00312 0.2127789,-0.00448 0.048875,-6.055e-4 0.073337,-8.986e-4 0.097119,-0.00165 0.5458771,-0.016934 1.0719033,-0.2079642 1.5009558,-0.5450665 0.018734,-0.014706 0.037663,-0.03015 0.07552,-0.061043 z"
     id="path1"
     style="opacity:0.518023;stroke-width:0.0485354;filter:url(#filter2)"
     transform="matrix(1,0,0,0.99805751,0,0.29711036)" /><path
     d="m 6.7594231,1.1197431 c 0.084743,-0.069202 0.1271626,-0.1038025 0.1658452,-0.13301606 0.9117367,-0.68824108 2.1707438,-0.68824108 3.0824807,0 0.03868,0.029214 0.08105,0.063814 0.165846,0.13301606 0.03786,0.030893 0.05678,0.046337 0.07547,0.061043 0.429053,0.3371022 0.955127,0.5281325 1.500955,0.5450665 0.02383,7.337e-4 0.04829,0.00105 0.09717,0.00165 0.109545,0.00136 0.164292,0.00204 0.212731,0.00448 1.141842,0.057486 2.106337,0.8649437 2.361342,1.976879 0.01082,0.047191 0.02096,0.1008856 0.04135,0.2082411 0.0091,0.047952 0.01364,0.071929 0.01849,0.095178 0.111486,0.5334037 0.391389,1.017107 0.798649,1.3801515 0.01776,0.015871 0.03631,0.031742 0.07334,0.063581 0.08304,0.071298 0.124541,0.1069234 0.160118,0.1398789 0.837623,0.776323 1.056275,2.0133921 0.535248,3.0287517 -0.02208,0.043099 -0.04888,0.090761 -0.102459,0.1860845 -0.02393,0.042517 -0.03591,0.063824 -0.04717,0.084743 -0.258207,0.4801116 -0.355424,1.0301628 -0.27733,1.5694887 0.0034,0.02349 0.0073,0.04756 0.01524,0.09571 0.01767,0.107845 0.02651,0.161768 0.03252,0.209819 0.14153,1.131892 -0.488022,2.219812 -1.54124,2.663426 -0.0447,0.01883 -0.09595,0.0382 -0.198412,0.07683 -0.04572,0.01723 -0.06858,0.02587 -0.09071,0.0347 -0.507146,0.202199 -0.935957,0.561215 -1.223578,1.024387 -0.01256,0.02019 -0.02504,0.04115 -0.05004,0.0831 -0.05592,0.09397 -0.08387,0.140948 -0.110224,0.18162 -0.620815,0.957845 -1.803914,1.38748 -2.8965907,1.051859 -0.046351,-0.01422 -0.09809,-0.03228 -0.2014701,-0.06839 -0.046157,-0.01612 -0.069212,-0.02416 -0.091829,-0.03159 -0.518746,-0.170359 -1.0785528,-0.170359 -1.5972987,0 -0.022618,0.0074 -0.04572,0.01549 -0.091877,0.03159 -0.1033803,0.03611 -0.1550704,0.05417 -0.2014217,0.06839 -1.0926764,0.335621 -2.2757742,-0.09401 -2.89659,-1.051859 -0.026355,-0.04067 -0.054311,-0.08766 -0.1102722,-0.18162 -0.024947,-0.04194 -0.037421,-0.0629 -0.049991,-0.0831 -0.2876254,-0.463172 -0.7164645,-0.822188 -1.2235958,-1.024387 -0.022117,-0.0088 -0.044987,-0.01747 -0.090722,-0.0347 -0.1024581,-0.03863 -0.1536824,-0.058 -0.1983883,-0.07683 -1.0532463,-0.443614 -1.6827693,-1.531534 -1.5412352,-2.663426 0.00601,-0.04805 0.014846,-0.101974 0.032528,-0.209819 0.00789,-0.04814 0.011838,-0.07221 0.015241,-0.09571 C 1.3896077,9.9256351 1.2924012,9.3755838 1.0341687,8.8954722 1.0229031,8.874553 1.0109448,8.8532461 0.98702648,8.8107293 0.93343867,8.7154059 0.90664699,8.6677443 0.88453428,8.6246448 0.3635267,7.6092852 0.58215417,6.3722161 1.4197968,5.595893 c 0.035557,-0.032955 0.077069,-0.06858 0.1600938,-0.1398788 0.037067,-0.031839 0.055597,-0.04771 0.073361,-0.063581 0.4072408,-0.3630445 0.6871442,-0.8467478 0.7986446,-1.3801515 0.00487,-0.023249 0.00941,-0.047225 0.018497,-0.095178 0.02036,-0.1073604 0.030539,-0.1610501 0.041362,-0.2082459 0.2550143,-1.1119305 1.2194942,-1.9193889 2.3612934,-1.9768742 0.048487,-0.00244 0.1032348,-0.00312 0.2127789,-0.00448 0.048875,-6.055e-4 0.073337,-8.986e-4 0.097119,-0.00165 0.5458771,-0.016934 1.0719033,-0.2079642 1.5009558,-0.5450665 0.018734,-0.014706 0.037663,-0.03015 0.07552,-0.061043 z"
     fill="#6750a4"
     id="path2"
     style="fill:#000000;stroke-width:0.0485354" /></svg>
